<?xml version="1.0" standalone="no"?><!DOCTYPE svg PUBLIC "-//W3C//DTD SVG 1.1//EN" "http://www.w3.org/Graphics/SVG/1.1/DTD/svg11.dtd"><svg t="1515852176340" class="icon" style="" viewBox="0 0 1024 1024" version="1.1" xmlns="http://www.w3.org/2000/svg" p-id="4090" xmlns:xlink="http://www.w3.org/1999/xlink" width="64" height="64"><defs><style type="text/css"></style></defs><path d="M824 92H664V48c0-26.5-21.5-48-48-48H408c-26.5 0-48 21.5-48 48v44H200c-39.7 0-72 32.3-72 72v724c0 39.7 32.3 72 72 72h624c39.7 0 72-32.3 72-72V164c0-39.7-32.3-72-72-72zM432 72h160v20H432V72z m392 816H200V164h160v42c0 19.9 16.1 36 36 36s36-16.1 36-36v-42h160v42c0 19.9 16.1 36 36 36s36-16.1 36-36v-42h160v724z" p-id="4091"></path><path d="M653.8 505.9c19.9 0 36-16.1 36-36s-16.1-36-36-36h-58.1l20.9-60.1c6.5-18.8-3.4-39.3-22.2-45.8s-39.3 3.4-45.8 22.2l-29.1 83.7h-14.9l-29.1-83.7c-6.5-18.8-27-28.7-45.8-22.2-18.8 6.5-28.7 27-22.2 45.8l20.9 60.1h-58.1c-19.9 0-36 16.1-36 36s16.1 36 36 36H476v61.7H370.2c-19.9 0-36 16.1-36 36s16.1 36 36 36H476V722c0 19.9 16.1 36 36 36s36-16.1 36-36v-82.3h105.8c19.9 0 36-16.1 36-36s-16.1-36-36-36H548V506h105.8z" p-id="4092"></path></svg>