<?xml version="1.0" standalone="no"?><!DOCTYPE svg PUBLIC "-//W3C//DTD SVG 1.1//EN" "http://www.w3.org/Graphics/SVG/1.1/DTD/svg11.dtd"><svg t="1517130249927" class="icon" style="" viewBox="0 0 1024 1024" version="1.1" xmlns="http://www.w3.org/2000/svg" p-id="1760" xmlns:xlink="http://www.w3.org/1999/xlink" width="64" height="64"><defs><style type="text/css"></style></defs><path d="M358.4 588.8h-102.4c-56.32 0-102.4 46.08-102.4 102.4v102.4c0 56.32 46.08 102.4 102.4 102.4h102.4c56.32 0 102.4-46.08 102.4-102.4v-102.4c0-56.32-46.08-102.4-102.4-102.4z m51.2 204.8c0 28.16-23.04 51.2-51.2 51.2h-102.4c-28.16 0-51.2-23.04-51.2-51.2v-102.4c0-28.16 23.04-51.2 51.2-51.2h102.4c28.16 0 51.2 23.04 51.2 51.2v102.4zM358.4 179.2h-102.4c-56.32 0-102.4 46.08-102.4 102.4v102.4c0 56.32 46.08 102.4 102.4 102.4h102.4c56.32 0 102.4-46.08 102.4-102.4v-102.4c0-56.32-46.08-102.4-102.4-102.4z m51.2 204.8c0 28.16-23.04 51.2-51.2 51.2h-102.4c-28.16 0-51.2-23.04-51.2-51.2v-102.4c0-28.16 23.04-51.2 51.2-51.2h102.4c28.16 0 51.2 23.04 51.2 51.2v102.4z m358.4 204.8h-102.4c-56.32 0-102.4 46.08-102.4 102.4v102.4c0 56.32 46.08 102.4 102.4 102.4h102.4c56.32 0 102.4-46.08 102.4-102.4v-102.4c0-56.32-46.08-102.4-102.4-102.4z m51.2 204.8c0 28.16-23.04 51.2-51.2 51.2h-102.4c-28.16 0-51.2-23.04-51.2-51.2v-102.4c0-28.16 23.04-51.2 51.2-51.2h102.4c28.16 0 51.2 23.04 51.2 51.2v102.4zM768 179.2h-102.4c-56.32 0-102.4 46.08-102.4 102.4v102.4c0 56.32 46.08 102.4 102.4 102.4h102.4c56.32 0 102.4-46.08 102.4-102.4v-102.4c0-56.32-46.08-102.4-102.4-102.4z m51.2 204.8c0 28.16-23.04 51.2-51.2 51.2h-102.4c-28.16 0-51.2-23.04-51.2-51.2v-102.4c0-28.16 23.04-51.2 51.2-51.2h102.4c28.16 0 51.2 23.04 51.2 51.2v102.4z" p-id="1761"></path></svg>