<?xml version="1.0" standalone="no"?><!DOCTYPE svg PUBLIC "-//W3C//DTD SVG 1.1//EN" "http://www.w3.org/Graphics/SVG/1.1/DTD/svg11.dtd"><svg t="1515852590861" class="icon" style="" viewBox="0 0 1024 1024" version="1.1" xmlns="http://www.w3.org/2000/svg" p-id="7395" xmlns:xlink="http://www.w3.org/1999/xlink" width="64" height="64"><defs><style type="text/css"></style></defs><path d="M661.333333 896 597.333333 341.333333 692.48 341.333333 644.266667 147.626667 718.506667 128 771.84 341.333333 938.666667 341.333333 874.666667 896 661.333333 896M213.333333 469.333333 426.666667 469.333333C497.493333 469.333333 554.666667 526.506667 554.666667 597.333333L85.333333 597.333333C85.333333 526.506667 142.506667 469.333333 213.333333 469.333333M554.666667 768C554.666667 838.826667 497.493333 896 426.666667 896L213.333333 896C142.506667 896 85.333333 838.826667 85.333333 768L554.666667 768M128 640 341.333333 640 405.333333 704 469.333333 640 512 640C535.466667 640 554.666667 659.2 554.666667 682.666667 554.666667 706.133333 535.466667 725.333333 512 725.333333L128 725.333333C104.533333 725.333333 85.333333 706.133333 85.333333 682.666667 85.333333 659.2 104.533333 640 128 640Z" p-id="7396"></path></svg>