<?xml version="1.0" standalone="no"?><!DOCTYPE svg PUBLIC "-//W3C//DTD SVG 1.1//EN" "http://www.w3.org/Graphics/SVG/1.1/DTD/svg11.dtd"><svg t="1517130221738" class="icon" style="" viewBox="0 0 1024 1024" version="1.1" xmlns="http://www.w3.org/2000/svg" p-id="1032" xmlns:xlink="http://www.w3.org/1999/xlink" width="64" height="64"><defs><style type="text/css"></style></defs><path d="M121.11494 367.542934l231.257991 0L352.372931 136.284943 121.11494 136.284943 121.11494 367.542934zM162.047188 177.217191l149.393495 0 0 149.393495L162.047188 326.610686 162.047188 177.217191z" p-id="1033"></path><path d="M121.11494 627.628484l231.257991 0L352.372931 396.370493 121.11494 396.370493 121.11494 627.628484zM162.047188 437.302741l149.393495 0 0 149.393495L162.047188 586.696236 162.047188 437.302741z" p-id="1034"></path><path d="M121.11494 887.714034l231.257991 0L352.372931 656.456043 121.11494 656.456043 121.11494 887.714034zM162.047188 697.388291l149.393495 0 0 149.393495L162.047188 846.781786 162.047188 697.388291z" p-id="1035"></path><path d="M399.441946 231.448326l503.44209 0 0 40.932248-503.44209 0 0-40.932248Z" p-id="1036"></path><path d="M399.441946 491.533876l503.44209 0 0 40.932248-503.44209 0 0-40.932248Z" p-id="1037"></path><path d="M399.441946 751.619426l503.44209 0 0 40.932248-503.44209 0 0-40.932248Z" p-id="1038"></path></svg>