<?xml version="1.0" standalone="no"?><!DOCTYPE svg PUBLIC "-//W3C//DTD SVG 1.1//EN" "http://www.w3.org/Graphics/SVG/1.1/DTD/svg11.dtd"><svg t="1515852349017" class="icon" style="" viewBox="0 0 1024 1024" version="1.1" xmlns="http://www.w3.org/2000/svg" p-id="6489" xmlns:xlink="http://www.w3.org/1999/xlink" width="64" height="64"><defs><style type="text/css"></style></defs><path d="M976.275938 419.503612C970.735198 390.224354 952.855496 371.30686 930.72758 371.30686 930.444546 371.30686 930.157468 371.309556 930.001124 371.314948L925.926774 371.314948C861.932646 371.314948 809.867754 319.251404 809.867754 255.255928 809.867754 234.487926 819.885832 211.204958 819.97209 211.004138 831.440384 185.188685 822.61779 153.531936 799.469602 137.381442L798.067908 136.394864 680.449502 71.055648 678.961548 70.403321C671.300746 67.072947 662.916182 65.384174 654.038328 65.384174 635.844592 65.384174 617.951414 72.686467 606.182566 84.905476 593.281578 98.221581 548.753494 136.231782 514.537302 136.231782 480.01247 136.231782 435.22022 97.474908 422.263974 83.912159 410.433126 71.44381 392.397082 64 374.020048 64 365.31606 64 357.082448 65.62947 349.55238 68.84124L348.023992 69.489524 226.25576 136.377344 224.817676 137.374704C201.59401 153.510373 192.721549 185.138817 204.177712 210.940794 204.278796 211.172612 214.3117 234.328886 214.3117 255.253232 214.3117 319.248708 162.248155 371.312252 98.252679 371.312252L94.243023 371.312252C93.964031 371.306862 93.686388 371.302818 93.410092 371.302818 71.30374 371.302818 53.440212 390.22166 47.900821 419.50631 47.496486 421.653328 38 472.559128 38 512.374012 38 552.187548 47.496485 603.09065 47.902168 605.24306 53.445604 634.523666 71.319913 653.442508 93.44109 653.442508 93.721429 653.442508 94.011203 653.437118 94.178329 653.431726L98.252679 653.431726C162.248154 653.431726 214.3117 705.49527 214.3117 769.489398 214.3117 790.283008 204.296318 813.537672 204.207364 813.741188 192.748504 839.535076 201.54549 871.190476 224.681548 887.385448L226.05494 888.342374 341.431982 952.863484 342.89837 953.509072C350.556478 956.871794 358.91813 958.57674 367.750158 958.57674 386.199972 958.57674 404.222538 950.957718 415.960388 938.194204 432.346746 920.387282 476.806094 883.61839 509.642152 883.61839 545.195344 883.61839 590.789526 924.837664 603.946592 939.262996 615.71005 952.242156 633.855264 959.99461 652.491072 960L652.496464 960C661.155976 960 669.368022 958.35166 676.907526 955.100806L678.404914 954.453868 798.000518 888.353156 799.415692 887.36523C822.60027 871.213386 831.447124 839.582246 820.01522 813.839574 819.914138 813.60506 809.867756 790.138794 809.867756 769.490744 809.867756 705.496616 861.932648 653.433072 925.926776 653.433072L929.879826 653.431726C930.142644 653.437116 930.404114 653.439812 930.666932 653.439812 952.835282 653.438464 970.7352 634.519622 976.267852 605.259234 976.366242 604.743032 986.179456 553.182212 986.179456 512.371314 986.179454 472.374478 976.680274 421.64524 976.275938 419.503612L976.275938 419.503612ZM368.352618 891.578402 267.425168 835.142646C271.872856 823.720178 280.935354 797.058316 280.935354 769.492092 280.935354 673.767088 207.269528 594.625218 112.394977 587.345836 110.078136 573.845084 104.629046 539.24208 104.629046 512.375356 104.629046 485.54637 110.07544 450.912366 112.390933 437.400832 207.269528 430.126844 280.935354 350.984972 280.935354 255.254576 280.935354 227.761132 271.921376 201.1734 267.483122 189.746888L374.881282 130.759778C374.883978 130.759778 374.885326 130.761126 374.888022 130.761126 378.758858 134.715524 394.24759 150.084303 415.632878 165.323697 450.57687 190.232091 483.852306 202.862174 514.535956 202.862174 544.9177 202.862174 577.928972 190.477387 612.651928 166.050152 633.902436 151.103229 649.31704 136.030961 653.178442 132.142605 653.186528 132.141257 653.194616 132.138561 653.201354 132.137214L756.731376 189.656588C752.287732 201.081752 743.240058 227.724744 743.240058 255.255926 743.240058 350.98632 816.904536 430.128192 911.783132 437.402182 914.098624 450.933932 919.547714 485.628586 919.547714 512.376704 919.547714 539.232646 914.10132 573.84778 911.785826 587.352576 816.908578 594.625218 743.241406 673.767088 743.241406 769.498832 743.241406 797.021926 752.27021 823.627182 756.712506 835.04965L651.885916 892.982794C647.362754 888.177944 632.104492 872.536912 610.982024 856.850054 575.36279 830.399796 541.266554 816.987998 509.640804 816.987998 478.318306 816.987998 444.479496 830.149108 409.063778 856.102034 388.247256 871.361644 372.885214 886.851724 368.352618 891.578402L368.352618 891.578402ZM677.96284 511.760768C677.96284 419.168014 602.629806 343.839024 510.034358 343.839024 417.441602 343.839024 342.112612 419.168014 342.112612 511.760768 342.112612 604.353522 417.441602 679.68386 510.034358 679.68386 602.631154 679.68386 677.96284 604.353522 677.96284 511.760768L677.96284 511.760768ZM510.034358 410.469416C565.890566 410.469416 611.332448 455.908602 611.332448 511.760768 611.332448 567.616976 565.890566 613.058858 510.034358 613.058858 454.182192 613.058858 408.743006 567.616976 408.743006 511.760768 408.743006 455.907254 454.182192 410.469416 510.034358 410.469416L510.034358 410.469416Z" p-id="6490"></path></svg>